<svg width="80" height="80" viewBox="0 0 80 80" fill="none" xmlns="http://www.w3.org/2000/svg">
<path d="M7.375 77.5C3.25 77.5 1.375 74.5 3.25 70.875L36.625 5.24997C38.5 1.62497 41.5 1.62497 43.375 5.24997L76.75 70.875C78.625 74.5 76.75 77.5 72.625 77.5H7.375Z" fill="#FFCE31"/>
<path d="M34.75 29.5001L38.25 52.6251C38.625 54.8751 41.5 54.8751 41.875 52.6251L45.25 29.5001C45.875 20.5001 34.125 20.5001 34.75 29.5001" fill="#231F20"/>
<path d="M40 67.2501C42.8995 67.2501 45.25 64.8996 45.25 62.0001C45.25 59.1006 42.8995 56.7501 40 56.7501C37.1005 56.7501 34.75 59.1006 34.75 62.0001C34.75 64.8996 37.1005 67.2501 40 67.2501Z" fill="#231F20"/>
</svg>
