<svg width="130" height="28" viewBox="0 0 130 28" fill="none" xmlns="http://www.w3.org/2000/svg">
<path d="M21.5352 23.7656C20.5859 24.9023 19.2441 25.7871 17.5098 26.4199C15.7754 27.041 13.8535 27.3516 11.7441 27.3516C9.5293 27.3516 7.58398 26.8711 5.9082 25.9102C4.24414 24.9375 2.95508 23.5312 2.04102 21.6914C1.13867 19.8516 0.675781 17.6895 0.652344 15.2051V13.4648C0.652344 10.9102 1.08008 8.70117 1.93555 6.83789C2.80273 4.96289 4.04492 3.5332 5.66211 2.54883C7.29102 1.55273 9.19531 1.05469 11.375 1.05469C14.4102 1.05469 16.7832 1.78125 18.4941 3.23438C20.2051 4.67578 21.2188 6.7793 21.5352 9.54492H16.4023C16.168 8.08008 15.6465 7.00781 14.8379 6.32812C14.041 5.64844 12.9395 5.30859 11.5332 5.30859C9.74023 5.30859 8.375 5.98242 7.4375 7.33008C6.5 8.67773 6.02539 10.6816 6.01367 13.3418V14.9766C6.01367 17.6602 6.52344 19.6875 7.54297 21.0586C8.5625 22.4297 10.0566 23.1152 12.0254 23.1152C14.0059 23.1152 15.418 22.6934 16.2617 21.8496V17.4375H11.4629V13.5527H21.5352V23.7656ZM34.2441 27.3516C31.4551 27.3516 29.1816 26.4961 27.4238 24.7852C25.6777 23.0742 24.8047 20.7949 24.8047 17.9473V17.4551C24.8047 15.5449 25.1738 13.8398 25.9121 12.3398C26.6504 10.8281 27.6934 9.66797 29.041 8.85938C30.4004 8.03906 31.9473 7.62891 33.6816 7.62891C36.2832 7.62891 38.3281 8.44922 39.8164 10.0898C41.3164 11.7305 42.0664 14.0566 42.0664 17.0684V19.1426H29.9551C30.1191 20.3848 30.6113 21.3809 31.4316 22.1309C32.2637 22.8809 33.3125 23.2559 34.5781 23.2559C36.5352 23.2559 38.0645 22.5469 39.166 21.1289L41.6621 23.9238C40.9004 25.002 39.8691 25.8457 38.5684 26.4551C37.2676 27.0527 35.8262 27.3516 34.2441 27.3516ZM33.6641 11.7422C32.6562 11.7422 31.8359 12.082 31.2031 12.7617C30.582 13.4414 30.1836 14.4141 30.0078 15.6797H37.0742V15.2754C37.0508 14.1504 36.7461 13.2832 36.1602 12.6738C35.5742 12.0527 34.7422 11.7422 33.6641 11.7422ZM53.7207 27.3516C50.9316 27.3516 48.6582 26.4961 46.9004 24.7852C45.1543 23.0742 44.2812 20.7949 44.2812 17.9473V17.4551C44.2812 15.5449 44.6504 13.8398 45.3887 12.3398C46.127 10.8281 47.1699 9.66797 48.5176 8.85938C49.877 8.03906 51.4238 7.62891 53.1582 7.62891C55.7598 7.62891 57.8047 8.44922 59.293 10.0898C60.793 11.7305 61.543 14.0566 61.543 17.0684V19.1426H49.4316C49.5957 20.3848 50.0879 21.3809 50.9082 22.1309C51.7402 22.8809 52.7891 23.2559 54.0547 23.2559C56.0117 23.2559 57.541 22.5469 58.6426 21.1289L61.1387 23.9238C60.377 25.002 59.3457 25.8457 58.0449 26.4551C56.7441 27.0527 55.3027 27.3516 53.7207 27.3516ZM53.1406 11.7422C52.1328 11.7422 51.3125 12.082 50.6797 12.7617C50.0586 13.4414 49.6602 14.4141 49.4844 15.6797H56.5508V15.2754C56.5273 14.1504 56.2227 13.2832 55.6367 12.6738C55.0508 12.0527 54.2188 11.7422 53.1406 11.7422ZM71.3516 19.3711L69.5234 21.1992V27H64.4434V0H69.5234V14.959L70.5078 13.6934L75.377 7.98047H81.4766L74.6035 15.9082L82.0742 27H76.2383L71.3516 19.3711ZM89.2812 22.7637H100.479V27H84.0078V1.40625H89.2812V22.7637ZM108.547 27H103.449V7.98047H108.547V27ZM103.15 3.05859C103.15 2.29688 103.402 1.66992 103.906 1.17773C104.422 0.685547 105.119 0.439453 105.998 0.439453C106.865 0.439453 107.557 0.685547 108.072 1.17773C108.588 1.66992 108.846 2.29688 108.846 3.05859C108.846 3.83203 108.582 4.46484 108.055 4.95703C107.539 5.44922 106.854 5.69531 105.998 5.69531C105.143 5.69531 104.451 5.44922 103.924 4.95703C103.408 4.46484 103.15 3.83203 103.15 3.05859ZM129.887 17.666C129.887 20.7129 129.236 23.0918 127.936 24.8027C126.635 26.502 124.818 27.3516 122.486 27.3516C120.424 27.3516 118.777 26.5605 117.547 24.9785L117.318 27H112.748V0H117.828V9.68555C119 8.31445 120.541 7.62891 122.451 7.62891C124.771 7.62891 126.588 8.48438 127.9 10.1953C129.225 11.8945 129.887 14.291 129.887 17.3848V17.666ZM124.807 17.2969C124.807 15.375 124.502 13.9746 123.893 13.0957C123.283 12.2051 122.375 11.7598 121.168 11.7598C119.551 11.7598 118.438 12.4219 117.828 13.7461V21.252C118.449 22.5879 119.574 23.2559 121.203 23.2559C122.844 23.2559 123.922 22.4473 124.438 20.8301C124.684 20.0566 124.807 18.8789 124.807 17.2969Z" fill="#2975CC"/>
</svg>
